<?xml version="1.0" encoding="UTF-8" standalone="no"?>
<!-- Created with Inkscape (http://www.inkscape.org/) -->

<svg
   width="200.05"
   height="200.075"
   viewBox="0 0 200.05 200.075"
   version="1.1"
   id="svg1"
   xmlns="http://www.w3.org/2000/svg"
   xmlns:svg="http://www.w3.org/2000/svg">
  <defs
     id="defs1">
    <radialGradient
       id="SVGID_5_"
       cx="1122.6722"
       cy="336.5101"
       r="98.153"
       gradientTransform="matrix(0.7071,0.7071,-0.7071,0.7071,-277.1678,-1013.5629)"
       gradientUnits="userSpaceOnUse">
		<stop
   offset="0.55"
   style="stop-color:#000000"
   id="stop68" />

		<stop
   offset="1"
   style="stop-color:#000000;stop-opacity:0"
   id="stop69" />

	</radialGradient>
    <radialGradient
       id="SVGID_6_"
       cx="1122.6732"
       cy="264.70999"
       r="98.153397"
       gradientTransform="matrix(0.7071,0.7071,0.7071,-0.7071,-872.8176,-417.9122)"
       gradientUnits="userSpaceOnUse">
		<stop
   offset="0.55"
   style="stop-color:#000000"
   id="stop70" />

		<stop
   offset="1"
   style="stop-color:#000000;stop-opacity:0"
   id="stop71" />

	</radialGradient>
    <linearGradient
       id="SVGID_7_"
       gradientUnits="userSpaceOnUse"
       x1="225.93111"
       y1="976.91492"
       x2="274.03241"
       y2="928.81311"
       gradientTransform="translate(587.065,-457.5252)">
		<stop
   offset="0"
   style="stop-color:#231F20;stop-opacity:0"
   id="stop74" />

		<stop
   offset="0.5"
   style="stop-color:#FFFFFF;stop-opacity:0.25"
   id="stop75" />

		<stop
   offset="1"
   style="stop-color:#231F20;stop-opacity:0"
   id="stop76" />

	</linearGradient>
  </defs>
  <g
     id="layer1"
     transform="translate(-737,-395)">
    <g
       id="g134"
       style="display:inline"
       transform="translate(732.475,391.025)">
      <path
         class="st9"
         d="M 264.7,33.3 C 225.6,-5.8 162.3,-5.8 123.3,33.3 l 141.4,141.4 c 39.1,-39 39.1,-102.3 0,-141.4 z"
         id="path69"
         style="display:inline;fill:url(#SVGID_5_)"
         transform="translate(-89.45)" />
      <path
         class="st10"
         d="M 123.3,174.8 C 84.2,135.7 84.2,72.4 123.3,33.4 l 141.4,141.4 c -39,39 -102.3,39 -141.4,0 z"
         id="path71"
         style="display:inline;fill:url(#SVGID_6_)"
         transform="translate(-89.45)" />
    </g>
    <path
       class="st11"
       d="m 794.525,404.725 c -9.5,4.5 -18.3,10.5 -26.1,17.8 l -4.1,4.1 c -7.5,7.9 -13.4,16.8 -17.8,26.2 l 133.1,133.1 c 9.5,-4.5 18.3,-10.4 26.1,-17.8 l 4.2,-4.2 c 7.5,-7.9 13.4,-16.8 17.8,-26.1 z m 42,93.3 c -1.6,0 -3,-1.3 -3,-3 0,-1.6 1.3,-3 3,-3 1.6,0 3,1.3 3,3 0,1.7 -1.4,3 -3,3 z"
       id="path76"
       style="display:inline;fill:url(#SVGID_7_)" />
  </g>
</svg>
