<?xml version="1.0" encoding="UTF-8" standalone="no"?>
<!-- Created with Inkscape (http://www.inkscape.org/) -->

<svg
   width="76.099998"
   height="76.099998"
   viewBox="0 0 76.099998 76.099998"
   version="1.1"
   id="svg1"
   xmlns="http://www.w3.org/2000/svg"
   xmlns:svg="http://www.w3.org/2000/svg">
  <defs
     id="defs1">
    <radialGradient
       id="SVGID_8_"
       cx="194.02299"
       cy="103.937"
       r="37.792999"
       gradientTransform="matrix(1,0,0,-1,0,208.248)"
       gradientUnits="userSpaceOnUse">
		<stop
   offset="0"
   style="stop-color:#29ABE2"
   id="stop77" />

		<stop
   offset="1"
   style="stop-color:#0071BC"
   id="stop78" />

	</radialGradient>
  </defs>
  <g
     id="layer1"
     transform="translate(-461,-462)">
    <g
       id="layer2"
       transform="translate(394.5,395.75)">
      <path
         class="st12"
         d="m 194,66.5 c -20.9,0 -37.8,16.9 -37.8,37.8 0,20.9 16.9,37.8 37.8,37.8 20.9,0 37.8,-16.9 37.8,-37.8 0,-20.9 -16.9,-37.8 -37.8,-37.8 z m -0.5,40.5 c -1.6,0 -3,-1.3 -3,-3 0,-1.6 1.3,-3 3,-3 1.6,0 3,1.3 3,3 0,1.7 -1.4,3 -3,3 z"
         id="path78"
         style="display:inline;fill:url(#SVGID_8_);stroke:#000000;stroke-width:0.5"
         transform="translate(-89.45)" />
      <circle
         class="st13"
         cx="194"
         cy="104.3"
         r="34"
         id="circle129"
         transform="translate(-89.45)"
         style="display:inline;fill:none;stroke:#55c7eb;stroke-width:0.5" />
      <path
         class="st14"
         d="m 193.5,93.9 c -5.6,0 -10.2,4.6 -10.2,10.2 0,5.6 4.6,10.2 10.2,10.2 5.6,0 10.2,-4.6 10.2,-10.2 0,-5.6 -4.6,-10.2 -10.2,-10.2 z m 0,13.1 c -1.6,0 -3,-1.3 -3,-3 0,-1.6 1.3,-3 3,-3 1.6,0 3,1.3 3,3 0,1.7 -1.4,3 -3,3 z"
         id="path130"
         transform="translate(-89.45)"
         style="display:inline;fill:#0464bb;stroke:#55c7eb;stroke-width:0.5" />
    </g>
  </g>
</svg>
