<?xml version="1.0" encoding="UTF-8" standalone="no"?>
<!-- Generator: Adobe Illustrator 24.0.3, SVG Export Plug-In . SVG Version: 6.00 Build 0)  -->

<svg
   version="1.1"
   id="Layer_1"
   x="0px"
   y="0px"
   viewBox="0 0 208.05 208.1"
   xml:space="preserve"
   width="208.05"
   height="208.10001"
   xmlns="http://www.w3.org/2000/svg"
   xmlns:svg="http://www.w3.org/2000/svg"
   xmlns:rdf="http://www.w3.org/1999/02/22-rdf-syntax-ns#"
   xmlns:cc="http://creativecommons.org/ns#"
   xmlns:dc="http://purl.org/dc/elements/1.1/"
   xmlns:ns="&amp;ns_sfw;"><defs
   id="defs130" />
<style
   type="text/css"
   id="style1">
	.st0{fill:#333333;}
	.st1{fill:url(#SVGID_1_);}
	.st2{fill:url(#SVGID_2_);}
	.st3{fill:none;stroke:#000000;stroke-width:0.5;}
	.st4{fill:url(#SVGID_3_);}
	.st5{fill:url(#SVGID_4_);stroke:#000000;stroke-width:0.5;}
	.st6{fill:#FFFFFF;}
	.st7{fill:none;stroke:#FE0000;stroke-width:0.5;}
	.st8{fill:#CB0101;stroke:#FE0000;stroke-width:0.5;}
	.st9{fill:url(#SVGID_5_);}
	.st10{fill:url(#SVGID_6_);}
	.st11{fill:url(#SVGID_7_);}
	.st12{fill:url(#SVGID_8_);stroke:#000000;stroke-width:0.5;}
	.st13{fill:none;stroke:#55C7EB;stroke-width:0.5;}
	.st14{fill:#0464BB;stroke:#55C7EB;stroke-width:0.5;}
</style>
<metadata
   id="metadata1">
	<ns:sfw>
		<ns:slices />
		<ns:sliceSourceBounds
   bottomLeftOrigin="true"
   height="208.3"
   width="297.5"
   x="11"
   y="5.8" />
	</ns:sfw>
<rdf:RDF><cc:Work
     rdf:about=""><dc:title>Wikitracks Vinyl</dc:title></cc:Work></rdf:RDF></metadata>
<title
   id="title1">Wikitracks Vinyl</title>


<g
   id="layer1"><path
     class="st0"
     d="M 265.7,31.9 C 246.4,12.6 220.8,2 193.5,2 c -27.3,0 -52.9,10.6 -72.2,29.9 -39.8,39.8 -39.8,104.5 0,144.3 19.3,19.3 44.9,29.9 72.2,29.9 27.3,0 52.9,-10.6 72.2,-29.9 19.2,-19.2 29.8,-44.9 29.8,-72.2 0,-27.2 -10.6,-52.9 -29.8,-72.1 z M 193.5,107 c -1.6,0 -3,-1.3 -3,-3 0,-1.6 1.3,-3 3,-3 1.6,0 3,1.3 3,3 0,1.7 -1.4,3 -3,3 z"
     id="path67"
     style="display:inline"
     transform="translate(-89.45)" /><path
     d="m 193.5,4 c 26.7,0 51.8,10.4 70.7,29.3 39,39 39,102.5 0,141.5 -18.9,18.9 -44,29.3 -70.7,29.3 -26.7,0 -51.8,-10.4 -70.7,-29.3 -39,-39 -39,-102.5 0,-141.5 C 141.6,14.4 166.8,4 193.5,4 m 0,-4 c -27.8,0 -53.9,10.8 -73.6,30.5 -40.6,40.6 -40.6,106.6 0,147.1 19.7,19.7 45.8,30.5 73.6,30.5 27.8,0 53.9,-10.8 73.6,-30.5 C 286.7,158 297.5,131.8 297.5,104 297.5,76.2 286.7,50 267.1,30.4 247.4,10.8 221.3,0 193.5,0 Z"
     id="path68"
     style="display:inline"
     transform="translate(-89.45)" /><g
     id="g133"
     style="display:inline"><circle
       class="st3"
       cx="194"
       cy="104.3"
       r="88.900002"
       id="circle71"
       transform="translate(-89.45)" /><circle
       class="st3"
       cx="194"
       cy="104.3"
       r="80.199997"
       id="circle72"
       transform="translate(-89.45)" /><circle
       class="st3"
       cx="194"
       cy="104.3"
       r="65.800003"
       id="circle73"
       transform="translate(-89.45)" /><circle
       class="st3"
       cx="194"
       cy="104.3"
       r="55.200001"
       id="circle74"
       transform="translate(-89.45)"
       style="display:inline" /></g><path
     d="m 194,57 c -26.1,0 -47.3,21.2 -47.3,47.3 0,26.1 21.2,47.3 47.3,47.3 26.1,0 47.3,-21.2 47.3,-47.3 C 241.3,78.2 220.2,57 194,57 Z m -0.5,50 c -1.6,0 -3,-1.3 -3,-3 0,-1.6 1.3,-3 3,-3 1.6,0 3,1.3 3,3 0,1.7 -1.4,3 -3,3 z"
     id="path74"
     transform="translate(-89.45)"
     style="display:inline" /></g><g
   id="layer4"><g
     id="g134"><path
       class="st9"
       d="M 264.7,33.3 C 225.6,-5.8 162.3,-5.8 123.3,33.3 l 141.4,141.4 c 39.1,-39 39.1,-102.3 0,-141.4 z"
       id="path69"
       style="display:inline;fill:url(#SVGID_5_)"
       transform="translate(-89.45)" /><path
       class="st10"
       d="M 123.3,174.8 C 84.2,135.7 84.2,72.4 123.3,33.4 l 141.4,141.4 c -39,39 -102.3,39 -141.4,0 z"
       id="path71"
       style="display:inline;fill:url(#SVGID_6_)"
       transform="translate(-89.45)" /></g><path
     class="st11"
     d="m 151.5,13.7 c -9.5,4.5 -18.3,10.5 -26.1,17.8 l -4.1,4.1 c -7.5,7.9 -13.4,16.8 -17.8,26.2 l 133.1,133.1 c 9.5,-4.5 18.3,-10.4 26.1,-17.8 l 4.2,-4.2 c 7.5,-7.9 13.4,-16.8 17.8,-26.1 z m 42,93.3 c -1.6,0 -3,-1.3 -3,-3 0,-1.6 1.3,-3 3,-3 1.6,0 3,1.3 3,3 0,1.7 -1.4,3 -3,3 z"
     id="path76"
     style="display:inline;fill:url(#SVGID_7_)"
     transform="translate(-89.45)" /></g><g
   id="layer2"
   style="display:none"><path
     class="st12"
     d="m 194,66.5 c -20.9,0 -37.8,16.9 -37.8,37.8 0,20.9 16.9,37.8 37.8,37.8 20.9,0 37.8,-16.9 37.8,-37.8 0,-20.9 -16.9,-37.8 -37.8,-37.8 z m -0.5,40.5 c -1.6,0 -3,-1.3 -3,-3 0,-1.6 1.3,-3 3,-3 1.6,0 3,1.3 3,3 0,1.7 -1.4,3 -3,3 z"
     id="path78"
     style="display:inline;fill:url(#SVGID_8_)"
     transform="translate(-89.45)" /><circle
     class="st13"
     cx="194"
     cy="104.3"
     r="34"
     id="circle129"
     transform="translate(-89.45)"
     style="display:inline" /><path
     class="st14"
     d="m 193.5,93.9 c -5.6,0 -10.2,4.6 -10.2,10.2 0,5.6 4.6,10.2 10.2,10.2 5.6,0 10.2,-4.6 10.2,-10.2 0,-5.6 -4.6,-10.2 -10.2,-10.2 z m 0,13.1 c -1.6,0 -3,-1.3 -3,-3 0,-1.6 1.3,-3 3,-3 1.6,0 3,1.3 3,3 0,1.7 -1.4,3 -3,3 z"
     id="path130"
     transform="translate(-89.45)"
     style="display:inline" /></g><g
   id="layer3"
   style="display:none"><g
     id="g86"
     transform="translate(-89.45)"
     style="display:inline">
		<path
   class="st6"
   d="m 207.5,102.5 c -0.5,0 -0.8,0.1 -1.1,0.4 -0.1,0.1 -0.1,0.1 -0.2,0.1 0,0 -0.1,0 -0.1,0 0,0 0,-0.1 0,-0.1 0,-0.1 0.1,-0.2 0.2,-0.3 0.3,-0.2 0.8,-0.3 1.3,-0.3 0.4,0 0.7,0.1 1,0.2 0.1,0.1 0.3,0.2 0.3,0.3 0.1,0.1 0.1,0.3 0.1,0.4 0,0.3 -0.1,0.5 -0.3,0.7 -0.2,0.1 -0.5,0.2 -0.8,0.3 -0.2,0 -0.3,0 -0.3,0 l 0.5,0.1 c 0.4,0 0.6,0.2 0.9,0.3 0.2,0.2 0.3,0.4 0.3,0.6 0,0.2 -0.1,0.5 -0.3,0.6 -0.3,0.4 -0.9,0.6 -1.6,0.6 -0.6,0 -1,-0.1 -1.4,-0.3 -0.2,-0.1 -0.3,-0.3 -0.3,-0.4 0,0 0,-0.1 0,-0.1 0,0 0.1,0 0.1,0 0,0 0.1,0 0.1,0 0,0 0.1,0.1 0.1,0.2 0.1,0.1 0.2,0.2 0.3,0.3 0.3,0.1 0.6,0.2 0.9,0.2 h 0.1 v -2 h -0.4 c -0.1,0 -0.2,0 -0.2,0 0,0 0,0 0,-0.1 0,0 0,-0.1 0,-0.1 0,0 0.1,0 0.2,0 h 0.4 z"
   id="path79" />
		<path
   class="st6"
   d="m 211.4,102.5 c -0.5,0 -0.8,0.1 -1.1,0.4 -0.1,0.1 -0.1,0.1 -0.2,0.1 0,0 -0.1,0 -0.1,0 0,0 0,-0.1 0,-0.1 0,-0.1 0.1,-0.2 0.2,-0.3 0.3,-0.2 0.8,-0.3 1.3,-0.3 0.4,0 0.7,0.1 1,0.2 0.1,0.1 0.3,0.2 0.3,0.3 0.1,0.1 0.1,0.3 0.1,0.4 0,0.3 -0.1,0.5 -0.3,0.7 -0.2,0.1 -0.5,0.2 -0.8,0.3 -0.2,0 -0.3,0 -0.3,0 l 0.5,0.1 c 0.4,0 0.6,0.2 0.9,0.3 0.2,0.2 0.3,0.4 0.3,0.6 0,0.2 -0.1,0.5 -0.3,0.6 -0.3,0.4 -0.9,0.6 -1.6,0.6 -0.6,0 -1,-0.1 -1.4,-0.3 -0.2,-0.1 -0.3,-0.3 -0.3,-0.4 0,0 0,-0.1 0,-0.1 0,0 0.1,0 0.1,0 0,0 0.1,0 0.1,0 0,0 0.1,0.1 0.1,0.2 0.1,0.1 0.2,0.2 0.3,0.3 0.3,0.1 0.6,0.2 0.9,0.2 h 0.1 v -2 H 211 c -0.1,0 -0.2,0 -0.2,0 0,0 0,0 0,-0.1 0,0 0,-0.1 0,-0.1 0,0 0.1,0 0.2,0 h 0.4 z"
   id="path80" />
		<path
   class="st6"
   d="m 215,102.3 v 0.8 1.1 0 h -0.8 v 0 -1.2 -0.4 -0.1 0 l -0.2,0.1 c 0,0 0,0 -0.1,0 0,0 0,0 0,-0.1 0,0 0,0 0,-0.1 0,0 0.1,0 0.1,0 l 0.4,-0.1 h 0.1 z"
   id="path81" />
		<path
   class="st6"
   d="m 216.7,101.9 c 0.1,0 0.1,0 0,0 0.1,0.1 0.1,0.1 0.1,0.1 0,0 0,0.1 -0.1,0.2 0,0.1 -0.2,0.4 -0.5,1 l -1.2,2.5 -0.3,0.7 c -0.1,0.1 -0.1,0.2 -0.1,0.2 -0.1,0.1 -0.1,0.2 -0.2,0.2 0,0 -0.1,0 -0.1,0 0,0 0,0 0,-0.1 0,0 0,-0.1 0.1,-0.2 l 0.1,-0.2 0.9,-1.9 0.6,-1.2 0.3,-0.6 c 0.2,-0.4 0.3,-0.6 0.4,-0.7 z"
   id="path82" />
		<path
   class="st6"
   d="m 217,104.4 c -0.2,0 -0.4,0.1 -0.5,0.2 0,0 -0.1,0.1 -0.1,0.1 0,0 0,0 0,0 0,0 0,0 0,0 0,0 0,-0.1 0.1,-0.1 0.2,-0.1 0.4,-0.2 0.6,-0.2 0.2,0 0.4,0 0.5,0.1 0.1,0 0.1,0.1 0.2,0.2 0,0.1 0.1,0.1 0.1,0.2 0,0.1 -0.1,0.2 -0.2,0.3 -0.1,0.1 -0.2,0.1 -0.4,0.1 -0.1,0 -0.1,0 -0.2,0 h 0.2 c 0.2,0 0.3,0.1 0.4,0.2 0.1,0.1 0.1,0.2 0.1,0.3 0,0.1 0,0.2 -0.1,0.3 -0.2,0.2 -0.4,0.3 -0.8,0.3 -0.3,0 -0.5,-0.1 -0.7,-0.2 -0.1,-0.1 -0.2,-0.1 -0.2,-0.2 0,0 0,0 0,0 0,0 0,0 0,0 0,0 0,0 0,0 0,0 0,0 0.1,0.1 0,0.1 0.1,0.1 0.2,0.1 0.1,0.1 0.3,0.1 0.5,0.1 h 0.1 v -1 h -0.2 c 0,0 -0.1,0 -0.1,0 0,0 0,0 0,0 0,0 0,0 0,0 0,0 0,0 0.1,0 h 0.2 z"
   id="path83" />
		<path
   class="st6"
   d="m 220.2,106 c 0.1,0.1 0.2,0.1 0.3,0.2 0.1,0 0.2,0.1 0.4,0.1 0,0 0,0 0,0 0,0 0,0 -0.1,0 -0.1,0 -0.2,0 -0.4,-0.1 -0.2,-0.1 -0.3,-0.2 -0.5,-0.3 v 0.1 0.2 0.1 H 219 v -0.1 -0.5 -0.6 -0.9 h 0.6 c 0.3,0 0.5,0 0.6,0 0.1,0 0.2,0 0.3,0.1 0.2,0.1 0.3,0.2 0.4,0.3 0.1,0.1 0.1,0.3 0.1,0.4 0,0.2 0,0.3 -0.1,0.5 -0.1,0.4 -0.4,0.5 -0.7,0.5 z m -0.1,-0.1 v 0 c 0.3,0 0.4,-0.1 0.6,-0.2 0.1,-0.1 0.2,-0.2 0.2,-0.3 0,-0.1 0.1,-0.2 0.1,-0.3 0,-0.2 -0.1,-0.3 -0.2,-0.5 -0.1,-0.1 -0.2,-0.2 -0.3,-0.2 -0.1,0 -0.3,-0.1 -0.5,-0.1 v 1 0.3 0.1 c 0,0.1 0,0.2 0.1,0.2 z"
   id="path84" />
		<path
   class="st6"
   d="m 222.2,106 v 0 0.3 0 h -0.9 v -0.1 -1 -0.5 -0.3 -0.1 h 0.7 c 0.3,0 0.5,0 0.6,0 0.1,0 0.3,0.1 0.4,0.1 0.1,0.1 0.2,0.2 0.3,0.3 0.1,0.1 0.1,0.2 0.1,0.3 0,0.1 0,0.3 -0.1,0.4 -0.1,0.1 -0.2,0.3 -0.3,0.3 -0.1,0.1 -0.3,0.1 -0.5,0.1 -0.1,0.2 -0.2,0.2 -0.3,0.2 z m 0,-1.5 v 0 1.1 0.4 c 0.1,0 0.2,0 0.3,0 0.1,0 0.2,0 0.3,-0.1 0.1,0 0.2,-0.1 0.3,-0.2 0.1,-0.1 0.2,-0.3 0.2,-0.5 0,-0.2 -0.1,-0.3 -0.2,-0.5 -0.1,-0.1 -0.2,-0.2 -0.3,-0.2 -0.2,0 -0.4,0 -0.6,0 z"
   id="path85" />
		<path
   class="st6"
   d="m 225.6,104.3 0.3,1.1 0.1,0.5 0.1,0.4 v 0.1 h -0.9 l -0.3,-1 -0.6,0.9 -0.6,-0.9 c -0.1,0.2 -0.1,0.5 -0.2,0.8 0,0.1 0,0.2 -0.1,0.2 -0.1,0 0,0 -0.1,0 0,0 -0.1,0 -0.1,0 0,0 0,-0.1 0,-0.1 l 0.1,-0.3 0.2,-0.5 0.3,-1.1 0.8,1.2 z"
   id="path86" />
	</g><g
     id="g92"
     transform="translate(-89.45)"
     style="display:inline">
		<path
   class="st6"
   d="m 174.1,107.1 c 0.1,-0.1 0.2,-0.1 0.3,-0.1 0.2,0 0.3,0 0.4,0.1 0.1,0.1 0.1,0.2 0.1,0.3 h -0.2 c 0,-0.1 0,-0.1 -0.1,-0.2 0,0 -0.1,-0.1 -0.2,-0.1 -0.1,0 -0.2,0 -0.2,0.1 0,0 -0.1,0.1 -0.1,0.1 0,0 0,0.1 0,0.1 0,0 0.1,0.1 0.1,0.1 0.1,0.1 0.3,0.1 0.4,0.2 0,0 0.1,0 0.1,0.1 0.1,0.1 0.1,0.1 0.1,0.2 0,0.1 0,0.2 -0.1,0.3 -0.1,0.1 -0.2,0.1 -0.4,0.1 -0.2,0 -0.3,0 -0.4,-0.1 -0.1,-0.1 -0.1,-0.2 -0.1,-0.3 h 0.2 c 0,0.1 0,0.2 0.1,0.2 0.1,0.1 0.1,0.1 0.3,0.1 0.1,0 0.2,0 0.2,-0.1 0,0 0.1,-0.1 0.1,-0.1 0,0 0,-0.1 0,-0.1 0,0 -0.1,-0.1 -0.1,-0.1 -0.1,0 -0.1,-0.1 -0.2,-0.1 -0.1,0 -0.2,-0.1 -0.2,-0.1 0,0 -0.1,0 -0.1,-0.1 0,0 -0.1,-0.1 -0.1,-0.2 0,-0.1 0,-0.2 0.1,-0.3 z"
   id="path87" />
		<path
   class="st6"
   d="m 175.1,107 h 1.1 v 0.1 h -0.4 v 1.2 h -0.2 v -1.2 h -0.4 V 107 Z"
   id="path88" />
		<path
   class="st6"
   d="m 176.3,107 h 0.9 v 0.1 h -0.7 v 0.4 h 0.6 v 0.1 h -0.6 v 0.5 h 0.7 v 0.1 h -0.9 z"
   id="path89" />
		<path
   class="st6"
   d="m 177.5,107 h 0.7 c 0.1,0 0.2,0 0.3,0.1 0.1,0.1 0.1,0.2 0.1,0.3 0,0.1 0,0.2 -0.1,0.3 0,0 -0.1,0.1 -0.2,0.1 l 0.3,0.6 h -0.2 l -0.3,-0.6 h -0.4 v 0.6 h -0.2 z m 0.2,0.2 v 0.5 h 0.5 c 0.1,0 0.1,0 0.1,-0.1 0,0 0.1,-0.1 0.1,-0.2 0,-0.1 0,-0.1 -0.1,-0.2 0,0 -0.1,-0.1 -0.1,-0.1 z"
   id="path90" />
		<path
   class="st6"
   d="m 178.7,107 h 0.9 v 0.1 h -0.7 v 0.4 h 0.6 v 0.1 h -0.6 v 0.5 h 0.7 v 0.1 h -0.9 z"
   id="path91" />
		<path
   class="st6"
   d="m 180,107.2 c 0.1,-0.1 0.2,-0.2 0.4,-0.2 0.2,0 0.3,0.1 0.4,0.2 0.1,0.1 0.2,0.3 0.2,0.5 0,0.2 -0.1,0.4 -0.2,0.5 -0.1,0.1 -0.2,0.2 -0.4,0.2 -0.2,0 -0.3,-0.1 -0.4,-0.2 -0.1,-0.1 -0.2,-0.3 -0.2,-0.5 0,-0.2 0.1,-0.4 0.2,-0.5 z m 0.2,0.1 c -0.1,0.1 -0.1,0.2 -0.1,0.4 0,0.2 0,0.3 0.1,0.4 0.1,0.1 0.2,0.1 0.3,0.1 0.1,0 0.2,0 0.3,-0.1 0.1,-0.1 0.1,-0.2 0.1,-0.4 0,-0.2 0,-0.3 -0.1,-0.4 -0.1,-0.1 -0.2,-0.1 -0.3,-0.1 -0.2,0 -0.3,0 -0.3,0.1 z"
   id="path92" />
	</g><g
     id="g97"
     transform="translate(-89.45)"
     style="display:inline">
		<path
   class="st6"
   d="m 163.1,105.3 c 0,0 0.1,0 0.1,0.1 0.1,0.1 0.3,0.3 0.5,0.3 0.2,0.1 0.4,0.1 0.6,0.1 0.2,0 0.3,-0.1 0.3,-0.2 0,-0.1 0,-0.2 -0.1,-0.3 -0.1,-0.1 -0.2,-0.3 -0.5,-0.6 -0.3,-0.4 -0.6,-0.6 -0.7,-0.8 -0.2,-0.2 -0.2,-0.5 -0.2,-0.7 0,-0.3 0.1,-0.6 0.4,-0.8 0.3,-0.2 0.6,-0.3 1.1,-0.3 0.3,0 0.6,0.1 0.8,0.2 0.1,0 0.2,0.1 0.2,0.2 0.1,0.1 0.1,0.1 0.1,0.2 0,0 0,0 0,0.1 0,0 0,0 -0.1,0 0,0 -0.1,0 -0.1,-0.1 -0.1,-0.1 -0.2,-0.2 -0.4,-0.2 -0.2,-0.1 -0.3,-0.1 -0.4,-0.1 -0.1,0 -0.2,0 -0.2,0.1 -0.1,0 -0.1,0.1 -0.1,0.1 0,0.1 0,0.2 0.1,0.3 0.1,0.1 0.2,0.2 0.4,0.4 0.5,0.6 0.8,0.9 1,1.1 0.1,0.2 0.2,0.4 0.2,0.6 0,0.2 0,0.3 -0.1,0.5 -0.1,0.1 -0.2,0.3 -0.4,0.4 -0.3,0.2 -0.6,0.3 -1.1,0.3 -0.4,0 -0.7,-0.1 -1,-0.3 -0.4,-0.3 -0.5,-0.4 -0.4,-0.6 -0.1,0.1 -0.1,0 0,0 z"
   id="path93" />
		<path
   class="st6"
   d="m 167.7,103 v 0 0.5 0.6 1 0.5 0.2 h -1.4 v -1 -0.9 -0.5 -0.5 -0.1 z m -0.6,-0.9 c 0.5,0 0.7,0.1 0.7,0.4 0,0.1 -0.1,0.2 -0.2,0.3 -0.1,0.1 -0.3,0.1 -0.5,0.1 -0.4,0 -0.7,-0.1 -0.7,-0.4 0,-0.3 0.2,-0.4 0.7,-0.4 z"
   id="path94" />
		<path
   class="st6"
   d="m 171.8,102.3 v 1.3 0.9 1.3 0.1 h -1.4 v -0.3 c -0.1,0.1 -0.3,0.2 -0.4,0.3 -0.1,0.1 -0.3,0.1 -0.5,0.1 -0.3,0 -0.6,-0.1 -0.9,-0.4 -0.3,-0.3 -0.5,-0.7 -0.5,-1.2 0,-0.5 0.2,-0.8 0.5,-1.1 0.3,-0.3 0.6,-0.4 0.9,-0.4 0.1,0 0.3,0 0.4,0.1 0.1,0.1 0.3,0.1 0.4,0.3 v -1 c 0.1,0 1.5,0 1.5,0 z m -1.3,1.2 c -0.1,-0.1 -0.3,-0.2 -0.4,-0.3 -0.1,-0.1 -0.2,-0.1 -0.3,-0.1 -0.1,0 -0.1,0 -0.1,0.1 0,0 0,0.1 0,0.3 v 0.1 1.8 c 0,0.1 0,0.2 0,0.3 0,0.1 0.1,0.1 0.1,0.1 0.1,0 0.2,0 0.3,-0.1 0.1,-0.1 0.2,-0.2 0.4,-0.3 z"
   id="path95" />
		<path
   class="st6"
   d="m 173.5,104.5 v 0.8 c 0,0.2 0,0.3 0,0.3 0,0.1 0.1,0.1 0.3,0.1 0.2,0 0.4,-0.1 0.6,-0.2 0.2,-0.1 0.4,-0.3 0.5,-0.5 0,-0.1 0.1,-0.1 0.1,-0.1 0,0 0,0 0.1,0 0,0 0.1,0 0.1,0 0,0 0,0.1 0,0.1 0,0.1 -0.1,0.2 -0.2,0.3 -0.2,0.2 -0.3,0.3 -0.6,0.4 -0.2,0.1 -0.5,0.2 -0.7,0.2 -0.4,0 -0.7,-0.1 -1,-0.4 -0.2,-0.1 -0.3,-0.3 -0.4,-0.6 -0.1,-0.2 -0.1,-0.4 -0.1,-0.6 0,-0.2 0,-0.4 0.1,-0.6 0.1,-0.2 0.2,-0.3 0.3,-0.5 0.1,-0.2 0.3,-0.3 0.5,-0.4 0.2,-0.1 0.4,-0.1 0.6,-0.1 0.3,0 0.6,0.1 0.9,0.3 0.4,0.3 0.6,0.7 0.6,1.3 h -0.6 -0.8 z m 0.6,-0.1 v -0.8 c 0,-0.2 0,-0.3 0,-0.3 0,0 0,-0.1 0,-0.1 -0.1,-0.1 -0.1,-0.1 -0.3,-0.1 -0.2,0 -0.3,0 -0.3,0.1 0,0 0,0.2 0,0.4 v 0.8 h 0.3 z"
   id="path96" />
		<path
   class="st6"
   d="m 178.9,102.1 2.1,3.8 h -1.8 l -0.3,-0.5 h -0.9 -0.8 -0.1 l -0.2,0.3 c -0.1,0.1 -0.1,0.2 -0.1,0.2 0,0 0,0 -0.1,0 -0.1,0 -0.1,0 -0.1,-0.1 0,0 0,-0.1 0.1,-0.1 0,-0.1 0.2,-0.3 0.4,-0.6 l 1.6,-2.7 z m -0.8,1.7 -0.5,0.8 -0.4,0.6 h 0.8 0.8 z"
   id="path97" />
	</g></g></svg>
